<svg version="1.1" id="Layer_1" xmlns="http://www.w3.org/2000/svg" xmlns:xlink="http://www.w3.org/1999/xlink" x="0px" y="0px"
	 width="100%" viewBox="0 0 400 400" enable-background="new 0 0 400 400" xml:space="preserve">
<path fill="#130048" opacity="1.000000" stroke="none" 
	d="
M277.000000,401.000000 
	C184.695358,401.000000 92.890717,401.000000 1.043040,401.000000 
	C1.043040,267.737030 1.043040,134.474045 1.043040,1.105529 
	C134.221252,1.105529 267.442596,1.105529 400.831970,1.105529 
	C400.831970,134.333160 400.831970,267.666565 400.831970,401.000000 
	C359.807465,401.000000 318.653717,401.000000 277.000000,401.000000 
M109.029388,304.506012 
	C126.361092,304.510559 143.692810,304.526917 161.024506,304.514313 
	C168.922668,304.508575 171.506088,301.941284 171.513367,294.066620 
	C171.532028,273.901550 171.513947,253.736465 171.529816,233.571396 
	C171.531174,231.857956 171.676407,230.144623 171.808975,227.247360 
	C173.482254,229.591873 174.412598,230.900879 175.348465,232.205933 
	C188.053040,249.921783 200.720657,267.664337 213.476028,285.343567 
	C222.885880,298.385773 235.591125,305.100342 251.797211,305.021484 
	C264.962524,304.957428 278.128510,305.040741 291.294006,304.999725 
	C305.555908,304.955292 316.914185,294.160858 316.947784,279.905670 
	C317.084900,221.743942 317.092621,163.581436 316.934814,105.419800 
	C316.895447,90.910133 305.420441,80.028175 290.972748,79.999168 
	C274.474152,79.966034 257.975372,79.987038 241.476669,79.993317 
	C232.916626,79.996574 230.490524,82.404953 230.484695,90.965225 
	C230.471191,110.796989 230.486420,130.628769 230.469742,150.460526 
	C230.468307,152.168289 230.316742,153.875931 230.179993,156.730515 
	C228.673782,154.691162 227.905914,153.670151 227.157364,152.635193 
	C214.478760,135.105164 201.807541,117.569824 189.124207,100.043221 
	C179.471970,86.705162 166.510773,79.868027 149.938904,79.974960 
	C137.107117,80.057770 124.274345,79.978310 111.442047,79.994896 
	C96.015587,80.014839 85.025017,90.870415 85.011513,106.358307 
	C84.961510,163.687088 84.962570,221.015961 85.012474,278.344727 
	C85.024689,292.380127 94.160316,302.535797 109.029388,304.506012 
z"/>
<path fill="#FBFBFC" opacity="1.000000" stroke="none" 
	d="
M108.587631,304.464783 
	C94.160316,302.535797 85.024689,292.380127 85.012474,278.344727 
	C84.962570,221.015961 84.961510,163.687088 85.011513,106.358307 
	C85.025017,90.870415 96.015587,80.014839 111.442047,79.994896 
	C124.274345,79.978310 137.107117,80.057770 149.938904,79.974960 
	C166.510773,79.868027 179.471970,86.705162 189.124207,100.043221 
	C201.807541,117.569824 214.478760,135.105164 227.157364,152.635193 
	C227.905914,153.670151 228.673782,154.691162 230.179993,156.730515 
	C230.316742,153.875931 230.468307,152.168289 230.469742,150.460526 
	C230.486420,130.628769 230.471191,110.796989 230.484695,90.965225 
	C230.490524,82.404953 232.916626,79.996574 241.476669,79.993317 
	C257.975372,79.987038 274.474152,79.966034 290.972748,79.999168 
	C305.420441,80.028175 316.895447,90.910133 316.934814,105.419800 
	C317.092621,163.581436 317.084900,221.743942 316.947784,279.905670 
	C316.914185,294.160858 305.555908,304.955292 291.294006,304.999725 
	C278.128510,305.040741 264.962524,304.957428 251.797211,305.021484 
	C235.591125,305.100342 222.885880,298.385773 213.476028,285.343567 
	C200.720657,267.664337 188.053040,249.921783 175.348465,232.205933 
	C174.412598,230.900879 173.482254,229.591873 171.808975,227.247360 
	C171.676407,230.144623 171.531174,231.857956 171.529816,233.571396 
	C171.513947,253.736465 171.532028,273.901550 171.513367,294.066620 
	C171.506088,301.941284 168.922668,304.508575 161.024506,304.514313 
	C143.692810,304.526917 126.361092,304.510559 108.587631,304.464783 
M126.600372,139.875122 
	C127.302124,140.805252 128.016235,141.726349 128.703873,142.666809 
	C160.801361,186.565369 192.905792,230.458847 224.983566,274.371796 
	C230.875473,282.437500 238.373886,287.977020 248.624786,288.192505 
	C263.274139,288.500397 277.935486,288.380280 292.589813,288.241333 
	C299.027374,288.180267 302.428314,281.836700 299.243591,276.169617 
	C298.272980,274.442474 296.970337,272.898895 295.790161,271.293030 
	C281.311310,251.591721 266.814117,231.903885 252.346848,212.194092 
	C227.448608,178.273483 202.529327,144.368179 177.704636,110.393791 
	C170.596756,100.666145 161.369568,95.750427 149.187912,96.017738 
	C136.703110,96.291710 124.207359,96.123123 111.716972,96.050957 
	C108.023613,96.029617 104.698883,96.522797 102.880653,100.235771 
	C101.100677,103.870605 102.425987,106.887787 104.664093,109.904541 
	C111.897446,119.654411 118.998734,129.502258 126.600372,139.875122 
M245.007263,132.500000 
	C245.007263,145.833069 244.865280,159.168915 245.124130,172.496948 
	C245.177490,175.244186 246.093399,178.417328 247.681732,180.624039 
	C264.793854,204.398590 282.117523,228.020920 299.400635,251.672241 
	C299.991058,252.480240 300.762512,253.155975 301.992767,254.476349 
	C301.992767,218.902588 301.992798,184.262085 301.992767,149.621567 
	C301.992737,135.455215 302.042114,121.288620 301.971100,107.122635 
	C301.936981,100.311111 297.895966,96.258659 291.172028,96.094284 
	C287.840759,96.012856 284.505859,96.079529 281.172607,96.079506 
	C269.230316,96.079422 257.288055,96.079468 245.007263,96.079468 
	C245.007263,108.231895 245.007263,119.865944 245.007263,132.500000 
M139.977692,184.547363 
	C126.805885,166.424927 113.634071,148.302490 100.462257,130.180054 
	C100.146141,130.346130 99.830017,130.512192 99.513893,130.678268 
	C99.513893,132.330765 99.513893,133.983276 99.513893,135.635773 
	C99.513893,181.926086 99.513878,228.216400 99.513962,274.506714 
	C99.513962,275.339264 99.490700,276.172699 99.519478,277.004272 
	C99.782646,284.608368 103.448624,288.262238 110.985970,288.282410 
	C124.806366,288.319427 138.626938,288.301056 152.447403,288.279480 
	C153.725967,288.277496 155.004257,288.086639 156.688980,287.950684 
	C156.688980,286.059418 156.688995,284.428009 156.688995,282.796600 
	C156.688995,263.980743 155.986542,245.129578 156.930389,226.361206 
	C157.584152,213.361221 155.277313,202.191528 146.014053,192.748810 
	C143.825699,190.518036 142.254700,187.681610 139.977692,184.547363 
z"/>
<path fill="#140149" opacity="1.000000" stroke="none" 
	d="
M126.375641,139.593735 
	C118.998734,129.502258 111.897446,119.654411 104.664093,109.904541 
	C102.425987,106.887787 101.100677,103.870605 102.880653,100.235771 
	C104.698883,96.522797 108.023613,96.029617 111.716972,96.050957 
	C124.207359,96.123123 136.703110,96.291710 149.187912,96.017738 
	C161.369568,95.750427 170.596756,100.666145 177.704636,110.393791 
	C202.529327,144.368179 227.448608,178.273483 252.346848,212.194092 
	C266.814117,231.903885 281.311310,251.591721 295.790161,271.293030 
	C296.970337,272.898895 298.272980,274.442474 299.243591,276.169617 
	C302.428314,281.836700 299.027374,288.180267 292.589813,288.241333 
	C277.935486,288.380280 263.274139,288.500397 248.624786,288.192505 
	C238.373886,287.977020 230.875473,282.437500 224.983566,274.371796 
	C192.905792,230.458847 160.801361,186.565369 128.703873,142.666809 
	C128.016235,141.726349 127.302124,140.805252 126.375641,139.593735 
z"/>
<path fill="#140149" opacity="1.000000" stroke="none" 
	d="
M245.007263,132.000000 
	C245.007263,119.865944 245.007263,108.231895 245.007263,96.079468 
	C257.288055,96.079468 269.230316,96.079422 281.172607,96.079506 
	C284.505859,96.079529 287.840759,96.012856 291.172028,96.094284 
	C297.895966,96.258659 301.936981,100.311111 301.971100,107.122635 
	C302.042114,121.288620 301.992737,135.455215 301.992767,149.621567 
	C301.992798,184.262085 301.992767,218.902588 301.992767,254.476349 
	C300.762512,253.155975 299.991058,252.480240 299.400635,251.672241 
	C282.117523,228.020920 264.793854,204.398590 247.681732,180.624039 
	C246.093399,178.417328 245.177490,175.244186 245.124130,172.496948 
	C244.865280,159.168915 245.007263,145.833069 245.007263,132.000000 
z"/>
<path fill="#140249" opacity="1.000000" stroke="none" 
	d="
M140.188690,184.835571 
	C142.254700,187.681610 143.825699,190.518036 146.014053,192.748810 
	C155.277313,202.191528 157.584152,213.361221 156.930389,226.361206 
	C155.986542,245.129578 156.688995,263.980743 156.688995,282.796600 
	C156.688995,284.428009 156.688980,286.059418 156.688980,287.950684 
	C155.004257,288.086639 153.725967,288.277496 152.447403,288.279480 
	C138.626938,288.301056 124.806366,288.319427 110.985970,288.282410 
	C103.448624,288.262238 99.782646,284.608368 99.519478,277.004272 
	C99.490700,276.172699 99.513962,275.339264 99.513962,274.506714 
	C99.513878,228.216400 99.513893,181.926086 99.513893,135.635773 
	C99.513893,133.983276 99.513893,132.330765 99.513893,130.678268 
	C99.830017,130.512192 100.146141,130.346130 100.462257,130.180054 
	C113.634071,148.302490 126.805885,166.424927 140.188690,184.835571 
z"/>
</svg>