<svg width="144" height="25" viewBox="0 0 144 25" fill="none" xmlns="http://www.w3.org/2000/svg">
<g clip-path="url(#clip0_525_17404)">
<path d="M0 0H3.26601L13.8828 15.4476V0H17.4036V21.7977H14.1376L3.52074 6.35007V21.7977H0V0Z" fill="white"/>
<path d="M19.6966 13.8555C19.6966 8.93374 22.8443 5.66772 27.5387 5.66772C32.233 5.66772 35.2261 8.59713 35.3261 13.2642C35.3261 13.6644 35.2989 14.1011 35.2352 14.5378H23.2173V14.7562C23.3083 17.4672 25.0277 19.2412 27.666 19.2412C29.7221 19.2412 31.2141 18.2132 31.678 16.4392H35.0441C34.4801 19.5869 31.8054 21.9796 27.848 21.9796C22.8352 21.9796 19.6875 18.7409 19.6875 13.8555H19.6966ZM31.8418 12.0815C31.5598 9.71612 29.9131 8.37879 27.5751 8.37879C25.428 8.37879 23.5903 9.8071 23.3447 12.0815H31.8418Z" fill="white"/>
<path d="M44.5055 5.66772C48.7358 5.66772 51.1649 7.68738 51.1649 11.4628V17.8493C51.1649 18.659 51.5106 18.8773 52.1929 18.8773H52.8752V21.8067H51.1012C48.9178 21.8067 48.1718 20.8424 48.1718 19.2503C47.1165 20.8697 45.4971 21.9887 42.9134 21.9887C39.429 21.9887 37 20.2784 37 17.3217C37 14.0556 39.3654 12.2179 43.8231 12.2179H47.8443V11.2536C47.8443 9.47959 46.5706 8.38789 44.3599 8.38789C42.3675 8.38789 41.0302 9.32493 40.7755 10.7259H37.4731C37.8188 7.6146 40.4934 5.68592 44.5055 5.68592V5.66772ZM43.3865 19.3686C46.1885 19.3686 47.8079 17.7219 47.8352 15.2565V14.6925H43.6594C41.5761 14.6925 40.4207 15.4749 40.4207 17.0942C40.4207 18.4316 41.5397 19.3686 43.3774 19.3686H43.3865Z" fill="white"/>
<path d="M58.1152 5.84973L58.4882 8.25148C59.2978 6.91414 60.5715 5.84973 63.1916 5.84973H75.6734V8.99748H62.4456C59.4525 8.99748 58.4882 11.3355 58.4882 13.7919V21.7977H55.1221V5.84973H58.1152Z" fill="white"/>
<path d="M68.013 5.84971V4.35771C68.013 1.49199 69.3868 0 72.4617 0H75.6731V2.9567H72.8984C71.8067 2.9567 71.3427 3.42067 71.3427 4.51237V5.84971H75.6731V8.8064H71.4064V21.7886H68.013V8.8064H65.2383V5.84971H68.013Z" fill="white"/>
<path d="M84.1973 5.66772C89.0554 5.66772 92.3214 8.97013 92.3214 13.8282C92.3214 18.6863 89.0554 21.9887 84.1973 21.9887C79.3393 21.9887 76.0732 18.7227 76.0732 13.8282C76.0732 8.93374 79.3393 5.66772 84.1973 5.66772ZM88.9008 13.8282C88.9008 10.7441 87.0358 8.53345 84.1973 8.53345C81.3589 8.53345 79.5303 10.7441 79.5303 13.8282C79.5303 16.9123 81.368 19.123 84.1973 19.123C87.0267 19.123 88.9008 16.9123 88.9008 13.8282Z" fill="white"/>
<path d="M97.498 5.84973L97.871 8.25148C98.6807 6.91414 99.9543 5.84973 102.574 5.84973H103.32V8.99748H101.828C98.8353 8.99748 97.871 11.3355 97.871 13.7919V21.7977H94.5049V5.84973H97.498Z" fill="white"/>
<path d="M105.376 5.84925H108.306L108.679 7.93258C109.579 6.74991 110.953 5.69459 113.346 5.6582C115.429 5.6582 117.303 6.49518 118.267 8.55122C119.296 6.80449 121.097 5.6582 123.717 5.6582C127.019 5.6582 129.694 7.55959 129.694 12.5996V21.7881H126.328V12.818C126.328 10.0159 125.172 8.55122 122.998 8.55122C120.697 8.55122 119.232 10.2979 119.232 13.1637V21.7881H115.838V12.818C115.838 10.0159 114.683 8.55122 112.472 8.55122C110.262 8.55122 108.733 10.4162 108.733 13.2546V21.7881H105.367V5.84925H105.376Z" fill="white"/>
<path d="M131.505 21.7977H143.741V25.0092H131.505V21.7977Z" fill="#00E5A4"/>
</g>
<defs>
<clipPath id="clip0_525_17404">
<rect width="143.741" height="25" fill="white"/>
</clipPath>
</defs>
</svg>
